# xmcd CD database file
#
# Track frame offsets:
#	150
#	105536
#	169265
#	229859
#
# Disc length: 3963 seconds
#
# Revision: 2
# Processed by: cddbd v1.5.2PL0 Copyright (c) Steve Scherf et al.
# Submitted via: CDex 1.50Beta7
#
DISCID=2a0f7904
DTITLE=Clifford Brown - At The Cotton Club 1956 - Disc 2
DYEAR=2007
DGENRE=Jazz
TTITLE0=Introduction by Max Roach into Get Happy [CD02)
TTITLE1=Unttled Blues
TTITLE2=Delilah
TTITLE3=Lover
EXTD=YEAR: 2007
EXTT0=
EXTT1=
EXTT2=
EXTT3=
PLAYORDER=
